<?xml version="1.0" encoding="utf-8"?>
<!-- Generator: Adobe Illustrator 24.0.0, SVG Export Plug-In . SVG Version: 6.00 Build 0)  -->
<svg version="1.1" id="Layer_1" xmlns="http://www.w3.org/2000/svg" xmlns:xlink="http://www.w3.org/1999/xlink" x="0px" y="0px"
	 viewBox="0 0 562.9 124" style="enable-background:new 0 0 562.9 124;" xml:space="preserve">
<style type="text/css">
	.st0{fill:#0080FF;}
	.st1{fill-rule:evenodd;clip-rule:evenodd;fill:#0080FF;}
</style>
<g id="XMLID_229_">
	<g id="XMLID_690_">
		<g id="XMLID_691_">
			<g>
				<g id="XMLID_44_">
					<g id="XMLID_48_">
						<path id="XMLID_49_" class="st0" d="M54.2,114.5v-21c22.2,0,39.5-22.1,31-45.5C82,39.4,75.1,32.5,66.4,29.3
							C43,20.9,21,38.1,21,60.3l0,0H0C0,24.9,34.3-2.8,71.5,8.8c16.2,5.1,29.2,18,34.2,34.2C117.3,80.2,89.6,114.5,54.2,114.5z"/>
					</g>
					<polygon id="XMLID_47_" class="st1" points="54.3,93.6 33.3,93.6 33.3,72.7 33.3,72.7 54.3,72.7 54.3,72.7 					"/>
					<polygon id="XMLID_46_" class="st1" points="33.3,109.6 17.3,109.6 17.3,109.6 17.3,93.6 33.3,93.6 					"/>
					<path id="XMLID_45_" class="st1" d="M17.3,93.6H3.8l0,0V80.2l0,0h13.5l0,0V93.6z"/>
				</g>
			</g>
		</g>
	</g>
	<g id="XMLID_234_">
		<path id="XMLID_677_" class="st0" d="M175.5,37.7c-5.3-3.7-12-5.5-19.7-5.5h-16.8v53.5h17c7.7,0,14.4-1.9,19.7-5.9
			c2.9-2,5.2-4.9,6.9-8.5c1.6-3.6,2.4-7.9,2.4-12.6s-0.8-8.9-2.4-12.5C180.8,42.5,178.5,39.6,175.5,37.7z M148.8,41.2h5.3
			c5.9,0,10.7,1.2,14.4,3.5c4.1,2.5,6.1,7.2,6.1,14c0,7-2,11.9-6.1,14.6l0,0c-3.5,2.3-8.3,3.5-14.3,3.5h-5.4V41.2z"/>
		<path id="XMLID_676_" class="st0" d="M196.5,31.4c-1.7,0-3,0.6-4.2,1.7c-1.1,1.1-1.7,2.4-1.7,4.1c0,1.7,0.6,3,1.7,4.2
			c1.1,1.1,2.5,1.7,4.2,1.7c1.6,0,3-0.6,4.2-1.7c1.1-1.1,1.7-2.5,1.7-4.2c0-1.7-0.6-3-1.7-4.1C199.6,32,198.1,31.4,196.5,31.4z"/>
		<rect id="XMLID_675_" x="191.7" y="47.9" class="st0" width="9.5" height="37.8"/>
		<path id="XMLID_670_" class="st0" d="M235.8,51c-2.9-2.5-6-4.1-9.5-4.1c-5.3,0-9.6,1.8-13,5.4c-3.4,3.5-5.2,8.1-5.2,13.6
			c0,5.3,1.7,9.9,5.1,13.5c3.4,3.5,7.8,5.3,13,5.3c3.6,0,6.9-1,9.4-3v0.8c0,3.1-0.8,5.5-2.5,7.2c-1.7,1.7-4,2.5-6.9,2.5
			c-4.3,0-7.1-1.7-10.5-6.3l-6.5,6.3l0.1,0.2c1.4,1.9,3.5,3.9,6.4,5.7c2.8,1.8,6.4,2.8,10.6,2.8c5.7,0,10.2-1.7,13.6-5.2
			c3.4-3.5,5.1-8.1,5.1-13.7V47.8h-9.4V51H235.8z M233.2,73.4c-1.7,1.9-3.9,2.8-6.5,2.8c-2.8,0-4.8-1-6.5-2.8
			c-1.7-1.9-2.4-4.3-2.4-7.3c0-3.1,0.8-5.5,2.4-7.5c1.6-1.9,3.9-2.8,6.5-2.8c2.8,0,4.8,1,6.5,2.8c1.7,1.9,2.5,4.5,2.5,7.5
			C235.8,69.1,234.9,71.5,233.2,73.4z"/>
		<rect id="XMLID_668_" x="253.2" y="47.9" class="st0" width="9.5" height="37.8"/>
		<path id="XMLID_660_" class="st0" d="M258,31.4c-1.7,0-3,0.6-4.2,1.7c-1.1,1.1-1.7,2.4-1.7,4.1c0,1.7,0.6,3,1.7,4.2
			c1.1,1.1,2.5,1.7,4.2,1.7c1.6,0,3-0.6,4.2-1.7c1.1-1.1,1.7-2.5,1.7-4.2c0-1.7-0.6-3-1.7-4.1C261,32,259.7,31.4,258,31.4z"/>
		<path id="XMLID_652_" class="st0" d="M283.5,37.7h-9.4v10.2h-5.4v8.7h5.4v15.6c0,4.9,1,8.4,2.9,10.5s5.4,3,10.2,3
			c1.6,0,3.1,0,4.6-0.1h0.5v-8.7l-3.2,0.1c-2.3,0-3.7-0.4-4.5-1.2c-0.7-0.8-1.1-2.5-1.1-5.1V56.5h8.9v-8.7h-8.9V37.7z"/>
		<rect id="XMLID_642_" x="337" y="32" class="st0" width="9.5" height="53.7"/>
		<path id="XMLID_448_" class="st0" d="M442.5,72.2c-1.7,1.9-3.5,3.6-4.8,4.5l0,0c-1.3,0.8-3,1.3-4.9,1.3c-2.8,0-5.1-1-6.9-3.1
			c-1.8-2-2.8-4.8-2.8-7.9c0-3.2,1-5.9,2.8-7.9c1.8-2,4.1-3.1,6.9-3.1c3,0,6.3,1.9,9,5.2l6.3-6l0,0c-4.1-5.3-9.3-7.8-15.5-7.8
			c-5.2,0-9.7,1.9-13.5,5.7c-3.7,3.7-5.5,8.4-5.5,14.1s1.9,10.3,5.5,14.1c3.7,3.7,8.2,5.7,13.5,5.7c6.9,0,12.4-3,16.2-8.4
			L442.5,72.2z"/>
		<path id="XMLID_445_" class="st0" d="M481.6,53.2c-1.3-1.9-3.1-3.4-5.4-4.5c-2.3-1.1-4.9-1.7-7.8-1.7c-5.3,0-9.6,1.9-12.9,5.8
			c-3.1,3.9-4.8,8.5-4.8,14.2c0,5.8,1.8,10.5,5.2,14.1c3.5,3.6,8.1,5.4,13.7,5.4c6.4,0,11.7-2.6,15.6-7.7l0.2-0.2l-6.3-6l0,0
			c-0.6,0.7-1.4,1.4-2.2,2.2c-1,0.8-1.8,1.6-2.8,2c-1.4,0.7-3,1.1-4.8,1.1c-2.6,0-4.8-0.7-6.5-2.3c-1.6-1.4-2.5-3.4-2.8-5.8h25.1
			l0.1-3.5c0-2.4-0.4-4.8-1-7C483.9,57.2,482.9,55.1,481.6,53.2z M460.8,62.1c0.5-1.8,1.3-3.4,2.5-4.5c1.3-1.3,3-1.9,4.9-1.9
			c2.3,0,4.1,0.6,5.3,1.9c1.1,1.2,1.8,2.6,1.9,4.5H460.8z"/>
		<path id="XMLID_442_" class="st0" d="M518,50.8L518,50.8c-2.9-2.4-6.9-3.7-11.8-3.7c-3.1,0-6.1,0.7-8.8,2c-2.5,1.2-4.9,3.4-6.5,6
			l0.1,0.1l6.1,5.8c2.5-4,5.3-5.4,9-5.4c2,0,3.6,0.5,4.9,1.6c1.2,1.1,1.9,2.4,1.9,4.1v1.8c-2.4-0.7-4.7-1.1-7-1.1
			c-4.7,0-8.5,1.1-11.4,3.2c-2.9,2.2-4.3,5.4-4.3,9.5c0,3.6,1.2,6.4,3.7,8.5c2.5,2,5.5,3.1,9.1,3.1c3.6,0,7-1.4,10.1-4v3.1h9.4V61.3
			C522.4,56.8,520.9,53.2,518,50.8z M501.2,71.3c1.1-0.7,2.6-1.1,4.6-1.1c2.3,0,4.7,0.5,7.2,1.3v3.7c-2,1.9-4.8,2.9-8.2,2.9
			c-1.7,0-2.9-0.4-3.9-1.1c-0.8-0.7-1.3-1.6-1.3-2.8C499.6,72.9,500.1,72,501.2,71.3z"/>
		<path id="XMLID_393_" class="st0" d="M558.9,51.5c-2.6-3-6.4-4.5-11.1-4.5c-3.7,0-6.9,1.1-9.1,3.2V48h-9.3v37.7h9.5V64.9
			c0-2.9,0.7-5.2,2-6.7c1.3-1.6,3.1-2.4,5.7-2.4c2.2,0,3.7,0.7,4.9,2.2c1.2,1.4,1.8,3.5,1.8,5.9v21.9h9.5V63.8
			C562.9,58.6,561.6,54.4,558.9,51.5z"/>
		<path id="XMLID_320_" class="st0" d="M325,50.8L325,50.8c-2.9-2.4-6.9-3.7-11.8-3.7c-3.1,0-6.1,0.7-8.8,2c-2.5,1.2-4.9,3.4-6.5,6
			l0.1,0.1l6.1,5.8c2.5-4,5.3-5.4,9-5.4c2,0,3.6,0.5,4.9,1.6c1.2,1.1,1.9,2.4,1.9,4.1v1.8c-2.4-0.7-4.7-1.1-7-1.1
			c-4.7,0-8.5,1.1-11.4,3.2c-2.9,2.2-4.3,5.4-4.3,9.5c0,3.6,1.2,6.4,3.7,8.5c2.5,2,5.5,3.1,9.1,3.1c3.6,0,7-1.4,10.1-4v3.1h9.4V61.3
			C329.4,56.8,327.9,53.2,325,50.8z M308.2,71.3c1.1-0.7,2.6-1.1,4.6-1.1c2.3,0,4.7,0.5,7.2,1.3v3.7c-2,1.9-4.8,2.9-8.2,2.9
			c-1.7,0-2.9-0.4-3.9-1.1c-0.8-0.7-1.3-1.6-1.3-2.8C306.6,72.9,307.1,72,308.2,71.3z"/>
		<path id="XMLID_235_" class="st0" d="M381,86.5c-15.3,0-27.7-12.4-27.7-27.7s12.4-27.7,27.7-27.7s27.7,12.4,27.7,27.7
			S396.3,86.5,381,86.5z M381,40.9c-9.9,0-17.9,8.1-17.9,17.9s8.1,17.9,17.9,17.9s17.9-8.1,17.9-17.9S390.9,40.9,381,40.9z"/>
	</g>
</g>
</svg>
